# xmcd
#
# Track frame offsets:
#	150
#	8920
#	20707
#	34075
#	43299
#	53719
#	63814
#	73905
#	84681
#	96040
#	105683
#	114819
#	124016
#	135724
#
# Disc length: 1940 seconds
#
# Revision: 1
# Processed by: cddbd v1.5.2PL0 Copyright (c) Steve Scherf et al.
# Submitted via: audiograbber 1.83.01
#
DISCID=bc07920e
DTITLE=The Drifters - The Drifters On Broadway
DYEAR=2002
DGENRE=Blues
TTITLE0=Saturday Night At The Movies (Mann/Weil)
TTITLE1=Under Te Boardwalk (Resnick/Young)
TTITLE2=On Broadway (Leiber/Stoller/Mann/Weil)
TTITLE3=Up On The Roof (Goffin/King)
TTITLE4=Some Kind Of Wonderful (Goffin/King)
TTITLE5=Dance With Me (Lebish/Leiber/Stoller)
TTITLE6=Please Stay ((Bacharach/Hilliard)
TTITLE7=This Magic Moment (Pomus/Shuman)
TTITLE8=Sweets For My Sweet (Pomus/Shuman)
TTITLE9=There Goes My Baby (Patterson/Treadwell/Nelson)
TTITLE10=I Count The Tears (Pomus/Shuman)
TTITLE11=True Love (Pomus/Shuman)
TTITLE12=I`ll Take You Home (Mann/Weil)
TTITLE13=Save The Last Dance For Me (Pomus/Shuman)
EXTD=compilation
EXTT0=
EXTT1=
EXTT2=
EXTT3=
EXTT4=
EXTT5=
EXTT6=
EXTT7=
EXTT8=
EXTT9=
EXTT10=
EXTT11=
EXTT12=
EXTT13=
PLAYORDER=
